General
Complete name                            : Bombay Talkies [1970] Hindi Bollywood DVDRip ShahBros.
Format                                   : MPEG-4
Format profile                           : Base Media / Version 2
Codec ID                                 : mp42
File size                                : 873 MiB
Duration                                 : 1h 45mn
Overall bit rate mode                    : Variable
Overall bit rate                         : 1 154 Kbps
Encoded date                             : UTC 2012-05-02 16:17:02
Tagged date                              : UTC 2012-05-02 16:17:22
Writing application                      : mp4creator 1.4.4

Video
ID                                       : 1
Format                                   : AVC
Format/Info                              : Advanced Video Codec
Format profile                           : Baseline@L1.3
Format settings, CABAC                   : No
Format settings, ReFrames                : 2 frames
Codec ID                                 : avc1
Codec ID/Info                            : Advanced Video Coding
Duration                                 : 1h 45mn
Bit rate mode                            : Variable
Bit rate                                 : 1 024 Kbps
Width                                    : 720 pixels
Height                                   : 480 pixels
Display aspect ratio                     : 3:2
Frame rate mode                          : Constant
Frame rate                               : 25.000 fps
Standard                                 : NTSC
Color space                              : YUV
Chroma subsampling                       : 4:2:0
Bit depth                                : 8 bits
Scan type                                : Progressive
Bits/(Pixel*Frame)                       : 0.119
Stream size                              : 770 MiB (88%)
Writing library                          : x264 core 116 r2074 2641b9e

Language                                 : English
Encoded date                             : UTC 2012-05-02 16:17:02
Tagged date                              : UTC 2012-05-02 16:17:20

Audio
ID                                       : 2
Format                                   : AAC
Format/Info                              : Advanced Audio Codec
Format profile                           : LC
Codec ID                                 : 40
Duration                                 : 1h 45mn
Bit rate mode                            : Variable
Bit rate                                 : 132 Kbps
Maximum bit rate                         : 173 Kbps
Channel(s)                               : 2 channels
Channel positions                        : Front: L R
Sampling rate                            : 44.1 KHz
Compression mode                         : Lossy
Stream size                              : 101 MiB (12%)
Language                                 : English
Encoded date                             : UTC 2012-05-02 16:17:20
Tagged date                              : UTC 2012-05-02 16:17:22
Material_Duration                        : 6345944
Material_StreamSize                      : 105783970

Seed And Enjoy :)